<?xml version="1.0" standalone="no"?><!DOCTYPE svg PUBLIC "-//W3C//DTD SVG 1.1//EN" "http://www.w3.org/Graphics/SVG/1.1/DTD/svg11.dtd"><svg class="icon" width="200px" height="200.00px" viewBox="0 0 1024 1024" version="1.1" xmlns="http://www.w3.org/2000/svg"><path fill="#ffffff" d="M644.16 791.808c-19.584-4.928-39.84-12.672-56.928-24.608a102.848 102.848 0 0 1-37.792-47.456c-15.328-38.528-9.152-90.08 5.344-138.976l12.352-38.24a258.944 258.944 0 0 0 11.2-53.888 241.536 241.536 0 0 0-15.584-111.232 309.344 309.344 0 0 0-49.952-84.704c2.784-72.672-43.488-152.32-124.064-200.288C280.832 28.192 152.288 45.088 101.664 130.08c-50.656 85.056-4.224 206.016 103.68 270.272 72.448 43.136 154.08 49.696 215.296 23.68 5.024 4.992 9.664 10.272 13.76 15.84 10.496 13.664 17.536 29.248 20.864 48.064 1.856 9.344 2.016 19.584 1.632 30.24-1.376 15.136-2.88 28.288-3.936 45.696-1.856 32.032-1.28 63.968 4.16 96.32 5.76 32.16 16.256 64.768 35.648 92a160.096 160.096 0 0 0 72.352 57.44c26.624 10.496 52.224 13.6 75.04 14.112 45.728 0.416 81.28-8.416 105.792-14.688 24.48-6.656 37.92-11.488 37.92-11.488s-14.304 1.728-39.264 2.72c-24.704 0.768-60.832 1.056-100.448-8.48zM403.264 990.464c-15.488-0.96-38.144-2.912-61.952-11.2-23.84-8.032-46.592-25.056-51.424-48.224-5.984-22.72 0.736-52.832 12.544-81.536l9.92-22.72c4.416-11.168 8.256-23.04 10.304-35.68a164.992 164.992 0 0 0-4.928-76.736 226.08 226.08 0 0 0-43.104-77.984c-6.368-37.152-30.848-74.912-69.568-100.96-65.376-44.032-146.464-37.888-181.184 13.6-34.688 51.488-9.792 128.928 55.552 172.992 37.728 25.376 80.672 34.08 116.928 27.008 4.384 3.584 8.352 7.36 11.68 11.392 5.888 6.816 10.048 14.336 12.32 24.416 1.216 4.96 1.472 10.592 1.376 16.672l-3.232 29.28a284.768 284.768 0 0 0 0.992 63.008c3.168 21.248 9.44 43.072 21.792 61.728a106.4 106.4 0 0 0 46.848 39.776c17.28 7.36 33.824 9.76 48.416 10.496 29.344 0.96 51.936-4.224 67.456-7.904 15.552-3.904 24.096-6.752 24.096-6.752s-9.152 0.16-24.832-0.672zM992.672 574.592c-15.456-1.664-37.984-4.608-61.408-13.952-23.456-9.12-45.376-27.104-49.216-50.464-4.992-22.976 3.072-52.8 16.128-80.896l10.912-22.272a165.28 165.28 0 0 0 10.368-112.032c-8.544-32.768-23.648-58.752-39.584-79.808-4.736-37.44-27.52-76.256-64.992-104-63.328-46.816-144.64-44.384-181.6 5.568-36.96 49.888-15.52 128.384 47.776 175.232 36.608 27.072 79.136 37.664 115.648 32.224 4.192 3.776 8 7.776 11.136 11.904 5.568 7.072 9.44 14.816 11.232 24.928 1.024 5.024 1.024 10.656 0.672 16.704l-4.544 29.152a282.56 282.56 0 0 0-1.792 62.944c2.176 21.344 7.456 43.456 18.976 62.624a105.984 105.984 0 0 0 45.024 41.792 135.904 135.904 0 0 0 47.904 12.64c29.28 2.272 52.064-1.888 67.744-4.832 15.68-3.2 24.384-5.696 24.384-5.696s-9.12-0.224-24.768-1.76z"  /></svg>